<svg version="1.1" xmlns="http://www.w3.org/2000/svg" xmlns:xlink="http://www.w3.org/1999/xlink">
	<symbol id="facebook" viewBox="0 0 24 24">
		<g>
			<path d="M17.525,9H14V7c0-1.032,0.084-1.682,1.563-1.682h1.868v-3.18C16.522,2.044,15.608,1.998,14.693,2C11.98,2,10,3.657,10,6.699V9H7v4l3-0.001V22h4v-9.003l3.066-0.001L17.525,9z" />
		</g>
	</symbol>
	<symbol id="google" viewBox="0 0 24 24">
		<g>
			<path d="M12.545,10.239v3.821h5.445c-0.712,2.315-2.647,3.972-5.445,3.972c-3.332,0-6.033-2.701-6.033-6.032 s2.701-6.032,6.033-6.032c1.498,0,2.866,0.549,3.921,1.453l2.814-2.814C17.503,2.988,15.139,2,12.545,2 C7.021,2,2.543,6.477,2.543,12s4.478,10,10.002,10c8.396,0,10.249-7.85,9.426-11.748L12.545,10.239z" />
		</g>
	</symbol>
	<symbol id="linkedin" viewBox="0 0 32 32">
		<g>
			<path d="M 8.6425781 4 C 7.1835781 4 6 5.181625 6 6.640625 C 6 8.099625 7.182625 9.3085938 8.640625 9.3085938 C 10.098625 9.3085938 11.283203 8.099625 11.283203 6.640625 C 11.283203 5.182625 10.101578 4 8.6425781 4 z M 21.535156 11 C 19.316156 11 18.0465 12.160453 17.4375 13.314453 L 17.373047 13.314453 L 17.373047 11.310547 L 13 11.310547 L 13 26 L 17.556641 26 L 17.556641 18.728516 C 17.556641 16.812516 17.701266 14.960938 20.072266 14.960938 C 22.409266 14.960937 22.443359 17.145609 22.443359 18.849609 L 22.443359 26 L 26.994141 26 L 27 26 L 27 17.931641 C 27 13.983641 26.151156 11 21.535156 11 z M 6.3632812 11.310547 L 6.3632812 26 L 10.923828 26 L 10.923828 11.310547 L 6.3632812 11.310547 z" />
		</g>
	</symbol>
	<symbol id="password-show" viewBox="0 0 36 36">
		<g>
			<path d="M33.62,17.53c-3.37-6.23-9.28-10-15.82-10S5.34,11.3,2,17.53L1.72,18l.26.48c3.37,6.23,9.28,10,15.82,10s12.46-3.72,15.82-10l.26-.48ZM17.8,26.43C12.17,26.43,7,23.29,4,18c3-5.29,8.17-8.43,13.8-8.43S28.54,12.72,31.59,18C28.54,23.29,23.42,26.43,17.8,26.43Z" class="clr-i-outline clr-i-outline-path-1">
			</path>
			<path d="M18.09,11.17A6.86,6.86,0,1,0,25,18,6.86,6.86,0,0,0,18.09,11.17Zm0,11.72A4.86,4.86,0,1,1,23,18,4.87,4.87,0,0,1,18.09,22.89Z" class="clr-i-outline clr-i-outline-path-2">
			</path>
		</g>
	</symbol>
	<symbol id="password-hide" viewBox="0 0 36 36">
		<g>
			<path d="M25.19,20.4A6.78,6.78,0,0,0,25.62,18a6.86,6.86,0,0,0-6.86-6.86,6.79,6.79,0,0,0-2.37.43L18,13.23a4.78,4.78,0,0,1,.74-.06A4.87,4.87,0,0,1,23.62,18a4.79,4.79,0,0,1-.06.74Z" class="clr-i-outline clr-i-outline-path-1">
			</path>
			<path d="M34.29,17.53c-3.37-6.23-9.28-10-15.82-10a16.82,16.82,0,0,0-5.24.85L14.84,10a14.78,14.78,0,0,1,3.63-.47c5.63,0,10.75,3.14,13.8,8.43a17.75,17.75,0,0,1-4.37,5.1l1.42,1.42a19.93,19.93,0,0,0,5-6l.26-.48Z" class="clr-i-outline clr-i-outline-path-2">
			</path>
			<path d="M4.87,5.78l4.46,4.46a19.52,19.52,0,0,0-6.69,7.29L2.38,18l.26.48c3.37,6.23,9.28,10,15.82,10a16.93,16.93,0,0,0,7.37-1.69l5,5,1.75-1.5-26-26Zm9.75,9.75,6.65,6.65a4.81,4.81,0,0,1-2.5.72A4.87,4.87,0,0,1,13.9,18,4.81,4.81,0,0,1,14.62,15.53Zm-1.45-1.45a6.85,6.85,0,0,0,9.55,9.55l1.6,1.6a14.91,14.91,0,0,1-5.86,1.2c-5.63,0-10.75-3.14-13.8-8.43a17.29,17.29,0,0,1,6.12-6.3Z" class="clr-i-outline clr-i-outline-path-3">
			</path>
		</g>
	</symbol>
</svg>
